<svg width="200" height="60" viewBox="0 0 200 60" fill="none" xmlns="http://www.w3.org/2000/svg">
  <!-- Background Circle -->
  <circle cx="30" cy="30" r="25" fill="url(#gradient1)" stroke="url(#gradient2)" stroke-width="2"/>
  
  <!-- Interview Icons Inside Circle -->
  
  <!-- User Sitting at Laptop -->
  <!-- User Head -->
  <circle cx="38" cy="20" r="3" fill="white" opacity="0.9"/>
  <circle cx="38" cy="19" r="1.5" fill="url(#gradient3)" opacity="0.8"/>
  <path d="M36.5 22.5C36.5 21.3954 37.3954 20.5 38.5 20.5C39.6046 20.5 40.5 21.3954 40.5 22.5C40.5 23.6046 39.6046 24.5 38.5 24.5C37.3954 24.5 36.5 23.6046 36.5 22.5Z" fill="url(#gradient3)" opacity="0.8"/>
  
  <!-- User Body -->
  <path d="M35 25C35 23.8954 35.8954 23 37 23H40C41.1046 23 42 23.8954 42 25V32C42 33.1046 41.1046 34 40 34H37C35.8954 34 35 33.1046 35 32V25Z" fill="white" opacity="0.9"/>
  
  <!-- User Arms -->
  <path d="M34 26C34 25.4477 34.4477 25 35 25H36C36.5523 25 37 25.4477 37 26V29C37 29.5523 36.5523 30 36 30H35C34.4477 30 34 29.5523 34 29V26Z" fill="white" opacity="0.9"/>
  <path d="M42 26C42 25.4477 41.5523 25 41 25H40C39.4477 25 39 25.4477 39 26V29C39 29.5523 39.4477 30 40 30H41C41.5523 30 42 29.5523 42 29V26Z" fill="white" opacity="0.9"/>
  
  <!-- Laptop -->
  <rect x="22" y="32" width="12" height="7" rx="0.8" fill="white" opacity="0.9"/>
  <rect x="23" y="33" width="10" height="5" fill="url(#gradient3)" opacity="0.8"/>
  <!-- Laptop Screen -->
  <rect x="22" y="26" width="12" height="6" rx="0.5" fill="white" opacity="0.9"/>
  <rect x="23" y="27" width="10" height="4" fill="url(#gradient3)" opacity="0.7"/>
  <!-- Camera on Laptop -->
  <circle cx="28" cy="29" r="0.8" fill="url(#gradient3)"/>
  <circle cx="28" cy="29" r="0.4" fill="white"/>
  
  <!-- Microphone -->
  <path d="M18 35H20C20.5523 35 21 35.4477 21 36V39C21 39.5523 20.5523 40 20 40H18C17.4477 40 17 39.5523 17 39V36C17 35.4477 17.4477 35 18 35Z" fill="white" opacity="0.8"/>
  <circle cx="19" cy="33" r="1" fill="white" opacity="0.8"/>
  <path d="M18.5 33H19.5M19 31.5V33" stroke="url(#gradient3)" stroke-width="0.6" stroke-linecap="round"/>
  
  <!-- Speech Bubble 1 (AI Question) -->
  <path d="M42 15C42 13.8954 42.8954 13 44 13H46C47.1046 13 48 13.8954 48 15V17C48 18.1046 47.1046 19 46 19H44L43 21L42 19H44C42.8954 19 42 18.1046 42 17V15Z" fill="url(#gradient3)" opacity="0.8"/>
  <circle cx="45" cy="16" r="0.4" fill="white"/>
  <circle cx="45" cy="18" r="0.4" fill="white"/>
  
  <!-- Speech Bubble 2 (User Answer) -->
  <path d="M15 32C15 30.8954 15.8954 30 17 30H19C20.1046 30 21 30.8954 21 32V34C21 35.1046 20.1046 36 19 36H17L16 38L15 36H17C15.8954 36 15 35.1046 15 34V32Z" fill="white" opacity="0.9"/>
  <path d="M17.5 33H18.5M17.5 35H18.5" stroke="url(#gradient3)" stroke-width="0.5" stroke-linecap="round"/>
  
  <!-- Interview Document/Notes -->
  <rect x="30" y="38" width="5" height="3" rx="0.4" fill="white" opacity="0.7"/>
  <path d="M30.5 39H34.5M30.5 40.5H33.5" stroke="url(#gradient3)" stroke-width="0.4" stroke-linecap="round"/>
  
  <!-- Interview Microphone (Outside Circle) -->
  <path d="M45 20H47C48.1046 20 49 20.8954 49 22V38C49 39.1046 48.1046 40 47 40H45C43.8954 40 43 39.1046 43 38V22C43 20.8954 43.8954 20 45 20Z" fill="url(#gradient4)"/>
  <circle cx="46" cy="18" r="3" fill="url(#gradient4)"/>
  <path d="M44 18H48M46 16V18" stroke="white" stroke-width="1.5" stroke-linecap="round"/>
  
  <!-- Text: AI Interview -->
  <text x="70" y="25" font-family="Arial, sans-serif" font-size="16" font-weight="bold" fill="url(#gradient5)">AI Interview</text>
  <text x="70" y="45" font-family="Arial, sans-serif" font-size="14" font-weight="600" fill="url(#gradient6)">MOCKER</text>
  
  <!-- Tech Dots -->
  <circle cx="160" cy="20" r="2" fill="url(#gradient7)" opacity="0.8"/>
  <circle cx="165" cy="25" r="2" fill="url(#gradient7)" opacity="0.6"/>
  <circle cx="170" cy="30" r="2" fill="url(#gradient7)" opacity="0.4"/>
  <circle cx="175" cy="35" r="2" fill="url(#gradient7)" opacity="0.2"/>
  
  <!-- Gradients -->
  <defs>
    <linearGradient id="gradient1" x1="0%" y1="0%" x2="100%" y2="100%">
      <stop offset="0%" style="stop-color:#1a1a1a;stop-opacity:1" />
      <stop offset="100%" style="stop-color:#333333;stop-opacity:1" />
    </linearGradient>
    <linearGradient id="gradient2" x1="0%" y1="0%" x2="100%" y2="100%">
      <stop offset="0%" style="stop-color:#ef4444;stop-opacity:1" />
      <stop offset="100%" style="stop-color:#dc2626;stop-opacity:1" />
    </linearGradient>
    <linearGradient id="gradient3" x1="0%" y1="0%" x2="100%" y2="100%">
      <stop offset="0%" style="stop-color:#ef4444;stop-opacity:1" />
      <stop offset="100%" style="stop-color:#dc2626;stop-opacity:1" />
    </linearGradient>
    <linearGradient id="gradient4" x1="0%" y1="0%" x2="100%" y2="100%">
      <stop offset="0%" style="stop-color:#1a1a1a;stop-opacity:1" />
      <stop offset="100%" style="stop-color:#333333;stop-opacity:1" />
    </linearGradient>
    <linearGradient id="gradient5" x1="0%" y1="0%" x2="100%" y2="0%">
      <stop offset="0%" style="stop-color:#ffffff;stop-opacity:1" />
      <stop offset="50%" style="stop-color:#ef4444;stop-opacity:1" />
      <stop offset="100%" style="stop-color:#ffffff;stop-opacity:1" />
    </linearGradient>
    <linearGradient id="gradient6" x1="0%" y1="0%" x2="100%" y2="0%">
      <stop offset="0%" style="stop-color:#ef4444;stop-opacity:1" />
      <stop offset="50%" style="stop-color:#ffffff;stop-opacity:1" />
      <stop offset="100%" style="stop-color:#ef4444;stop-opacity:1" />
    </linearGradient>
    <linearGradient id="gradient7" x1="0%" y1="0%" x2="100%" y2="100%">
      <stop offset="0%" style="stop-color:#ef4444;stop-opacity:1" />
      <stop offset="100%" style="stop-color:#dc2626;stop-opacity:1" />
    </linearGradient>
  </defs>
</svg>